<svg version="1" xmlns="http://www.w3.org/2000/svg" width="346.667" height="346.667" viewBox="0 0 260.000000 260.000000"><path d="M60.8 55c-19 3-33.3 12.4-39.7 25.9-2.2 4.8-2.6 7-2.6 14.6 0 8.2.3 9.7 3.3 15.7 6.2 12.7 18.4 21.2 43.5 30.2 20 7.2 25.2 10.4 27.6 16.9 2.7 7.1.5 14-5.6 17.9-3.3 2-5.1 2.3-13.3 2.3-7.9 0-10.3-.4-14.3-2.3-5.6-2.8-9.4-8.5-10.3-15.5l-.7-4.7h-35l.5 6.4c.7 7.6 4.8 17 10.2 23.2 16.6 19.2 57.3 25.3 83.6 12.6 6.9-3.3 14.8-11.1 18-17.7 2.2-4.4 2.5-6.3 2.5-16.5 0-10.3-.3-12.1-2.6-17-6.3-13.2-17-20.8-43-30.6-18.6-7-24-10-27.7-15.4-2.8-4.2-2.6-9.3.7-13.8 5.6-7.9 23.2-9.6 31.5-3.1C90.6 86.6 94 93 94 96.5V99h35.3l-.6-5.9c-1-11.7-9.8-24.6-21.1-31-11.5-6.5-31.4-9.5-46.8-7.1zM132 129.5v73.7l37.8-.4c41.2-.5 43.4-.8 55.9-6.9 7.6-3.7 14.4-10.9 17.4-18.7 1.9-4.7 2.3-7.7 2.3-16.7.1-10-.2-11.5-2.6-16-3.4-6.5-9.1-11.9-15.2-14.5l-4.9-2.1 4.1-2c5.1-2.6 10.8-8.7 13.5-14.8 1.7-3.7 2.2-6.6 2.2-14.6 0-8.7-.3-10.7-2.6-15.6-5.3-11.2-14.2-17.9-29.6-22.1-7.1-1.9-11-2.2-43-2.6l-35.3-.4v73.7zm67.5-43.9c5.4 2.8 8 7.5 8 14.4 0 6.7-2.6 11.5-7.5 14.5-3 1.7-5.7 2-17.7 2.4l-14.3.3V82.8l13.8.4c11.5.2 14.3.6 17.7 2.4zm2.5 57.6c5.4 2.8 8 6.9 8.6 14 .4 4.3.1 6.2-1.8 9.8-3.9 7.5-6.7 8.4-25 8.8l-15.8.4V141h14.8c13.3 0 15.2.2 19.2 2.2z"/></svg>